:SAMPLES-PER-SECOND 30
:FULLY-SPECIFIED
:DEGREES
305
root  -79.3523 40.688 3.65142 -34.81 -84.5961 30.0769
RightUpLeg  4.1146 -7.26156 -6.12272
RightLeg  13.2863 1.40665 -0.347781
RightFoot  -11.2889 -0.0771831 1.74531
RightToes  -6.40286e-010 0 -3.6325e-017
Spine  1.1757 2.39587 5.71233
Spine1  7.40344 4.31755 -7.37118
HEad  -21.9066 -5.49928 -0.365432
LeftShoulder1  -0.158743 3.92816 -31.2693
LeftArm  1.01789 14.9498 -43.7054
LeftForeArm  25.1668 -22.0598 -3.74664
LeftHand  -0.0517574 7.66808 -0.480223
RightShoulder  -0.939604 -6.08694 29.7997
RightArm  15.24 -5.95447 48.0037
RightForeArm  19.4965 10.0605 7.02424
RightHand  0.0283293 3.56525 0.111698
LeftUpLeg  -6.3956 3.49148 -1.92708
LeftLeg  6.73448 -5.43166 -0.804531
LeftFoot  4.0084 -0.417622 2.90874
LeftToes  1.32783e-010 1.73515e-011 1.59258e-011
306
root  -79.786 40.6526 3.82103 -45.3382 -84.5788 40.7321
RightUpLeg  3.31605 -5.4513 -7.08453
RightLeg  15.912 0.219242 -0.385794
RightFoot  -12.2003 -0.0601176 2.90726
RightToes  -6.40286e-010 0 -3.6325e-017
Spine  0.866178 2.41345 4.61347
Spine1  7.39474 4.44287 -8.24815
HEad  -21.3194 -5.1661 -0.510035
LeftShoulder1  -0.167089 3.96197 -30.3721
LeftArm  -3.7887 14.6154 -43.2611
LeftForeArm  30.2151 -23.6858 -3.48517
LeftHand  -0.0419079 6.65264 -0.441099
RightShoulder  -0.988578 -6.23045 29.705
RightArm  11.9554 -9.01292 47.6024
RightForeArm  19.15 10.8497 5.79679
RightHand  0.0131502 3.40927 -0.0306252
LeftUpLeg  -5.85129 3.92121 -2.65165
LeftLeg  7.05917 -5.17116 -1.33486
LeftFoot  2.9198 -0.370995 2.83623
LeftToes  1.32783e-010 1.73515e-011 1.59258e-011
307
root  -80.1769 40.5576 3.97714 -52.8972 -84.4849 48.3615
RightUpLeg  1.60617 -4.06416 -7.99264
RightLeg  20.2268 -0.0452919 -0.190593
RightFoot  -12.919 -0.0205872 4.86941
RightToes  -6.40286e-010 0 -3.6325e-017
Spine  0.417492 2.15433 3.14468
Spine1  7.69616 4.05949 -8.22322
HEad  -20.9261 -4.51059 -1.0798
LeftShoulder1  -0.200301 4.0676 -29.3392
LeftArm  -6.40816 13.8127 -41.6025
LeftForeArm  33.7127 -24.2358 -3.38409
LeftHand  -0.0317487 5.62905 -0.254825
RightShoulder  -0.958474 -6.22836 28.6219
RightArm  7.07441 -11.5775 47.2606
RightForeArm  17.8911 10.7002 4.34639
RightHand  -0.0806857 4.9885 -1.2195
LeftUpLeg  -5.90015 4.27611 -3.19557
LeftLeg  8.51796 -4.85803 -1.78471
LeftFoot  1.80399 -0.492486 4.17514
LeftToes  1.32783e-010 1.73515e-011 1.59258e-011
308
root  -80.5115 40.4594 4.08031 -63.672 -84.6631 59.2542
RightUpLeg  -0.658595 -3.4427 -8.85068
RightLeg  25.1037 1.00132 0.290086
RightFoot  -12.989 0.0102998 7.00652
RightToes  -6.40286e-010 0 -3.6325e-017
Spine  0.985028 2.04412 0.559083
Spine1  6.55868 3.36305 -6.53388
HEad  -20.2187 -3.23076 -2.17163
LeftShoulder1  -0.177946 4.03247 -27.524
LeftArm  -6.57989 12.2967 -38.9848
LeftForeArm  32.5627 -21.0603 -3.62421
LeftHand  -0.0363083 6.35593 -0.299074
RightShoulder  -0.800095 -5.92057 26.3963
RightArm  3.29911 -13.5365 45.8917
RightForeArm  17.338 9.84957 3.00745
RightHand  -0.0564068 4.81792 -0.940447
LeftUpLeg  -6.11693 4.87942 -3.44573
LeftLeg  10.0337 -4.36504 -2.32859
LeftFoot  0.534671 -0.507632 4.84867
LeftToes  1.32783e-010 1.73515e-011 1.59258e-011
309
root  -80.7934 40.3867 4.15724 -73.6446 -84.7787 69.2515
RightUpLeg  -2.6681 -2.30708 -9.36476
RightLeg  29.032 1.64656 0.763475
RightFoot  -12.274 -0.0124718 8.43933
RightToes  -6.40286e-010 0 -3.6325e-017
Spine  1.14533 1.83721 -2.06546
Spine1  6.30479 2.48103 -4.03733
HEad  -20.4001 -2.28768 -3.24354
LeftShoulder1  -0.172999 4.04951 -25.3982
LeftArm  -4.82902 8.97012 -34.295
LeftForeArm  28.0448 -14.0467 -5.64741
LeftHand  -0.0642875 6.54584 -0.628272
RightShoulder  -0.583848 -5.44223 23.4466
RightArm  2.16247 -13.809 43.0576
RightForeArm  17.7505 8.64422 2.31891
RightHand  -0.0471608 5.09704 -0.824541
LeftUpLeg  -6.21703 5.04476 -3.71939
LeftLeg  11.3026 -3.61102 -2.3346
LeftFoot  -0.528445 -0.491852 5.21453
LeftToes  1.32783e-010 1.73515e-011 1.59258e-011
310
root  -81.0835 40.3773 4.2093 -83.3563 -84.9175 79.3696
RightUpLeg  -4.33111 -1.22787 -9.6193
RightLeg  30.2449 2.42129 1.28657
RightFoot  -12.2251 -0.0297403 7.10915
RightToes  -6.40286e-010 0 -3.6325e-017
Spine  0.249076 1.67197 -3.97186
Spine1  7.07943 1.86368 -1.92593
HEad  -21.0789 -1.78375 -3.82958
LeftShoulder1  -0.13758 3.96474 -23.5879
LeftArm  -7.26898 6.53456 -28.948
LeftForeArm  27.2444 -8.14733 -6.72899
LeftHand  -0.163824 8.65588 -3.05917
RightShoulder  -0.512231 -5.30762 21.4471
RightArm  1.8584 -13.5011 37.759
RightForeArm  16.9456 8.90214 1.84893
RightHand  -0.0929937 5.28972 -1.32311
LeftUpLeg  -6.33402 5.06277 -3.79143
LeftLeg  11.7714 -2.88696 -2.23881
LeftFoot  -1.54244 -0.39063 4.66661
LeftToes  1.32783e-010 1.73515e-011 1.59258e-011
311
root  -81.4074 40.4114 4.3049 -93.9093 -84.6946 89.6999
RightUpLeg  -3.97067 -0.283089 -10.2176
RightLeg  27.7118 2.1435 1.0129
RightFoot  -13.4684 0.034068 6.77487
RightToes  -6.40286e-010 0 -3.6325e-017
Spine  0.0148085 1.54839 -5.26452
Spine1  7.24612 1.40749 -0.334018
HEad  -21.052 -1.27256 -4.64148
LeftShoulder1  -0.107438 3.88208 -21.7681
LeftArm  -5.74513 5.58562 -22.8121
LeftForeArm  19.6068 -3.85064 -7.31431
LeftHand  -0.0163251 5.21959 1.46015
RightShoulder  -0.331776 -4.81999 18.0823
RightArm  0.243113 -14.6108 32.6498
RightForeArm  14.2791 9.76658 0.963998
RightHand  -0.051047 5.50174 -0.862895
LeftUpLeg  -5.22244 4.87229 -4.16994
LeftLeg  11.2614 -1.93557 -1.94119
LeftFoot  -1.91452 -0.384755 4.80452
LeftToes  1.32783e-010 1.73515e-011 1.59258e-011
312
root  -81.7366 40.4968 4.34398 -105.782 -85.167 101.736
RightUpLeg  -3.23814 0.777822 -9.60118
RightLeg  22.5573 0.510967 0.0312402
RightFoot  -12.8382 0.00251641 6.71915
RightToes  -6.40286e-010 0 -3.6325e-017
Spine  -0.772904 1.64547 -5.13048
Spine1  7.33042 1.30902 0.733104
HEad  -20.2812 -0.984787 -5.1682
LeftShoulder1  -0.0469287 3.68653 -19.8969
LeftArm  -6.13396 5.52821 -17.2818
LeftForeArm  14.1981 -1.44844 -6.75279
LeftHand  -0.0303195 7.11175 0.444324
RightShoulder  -0.256214 -4.63577 15.4188
RightArm  -2.78749 -15.143 26.5508
RightForeArm  11.5805 10.1503 -0.418176
RightHand  0.000986523 5.90366 -0.320424
LeftUpLeg  -4.60234 5.27251 -3.50567
LeftLeg  10.9265 -1.23364 -1.77969
LeftFoot  -1.89899 -0.451461 5.6009
LeftToes  1.32783e-010 1.73515e-011 1.59258e-011
313
root  -82.0653 40.6474 4.39357 -120.767 -85.2583 116.577
RightUpLeg  -2.37931 0.558017 -9.14064
RightLeg  18.3773 -1.19974 -0.662143
RightFoot  -10.7808 -0.0874128 4.28483
RightToes  -6.40286e-010 0 -3.6325e-017
Spine  -1.37207 2.08871 -3.23049
Spine1  7.44566 2.05519 -0.13551
HEad  -19.7895 -1.72784 -5.14793
LeftShoulder1  -0.101685 3.91944 -17.6404
LeftArm  -10.4108 4.52837 -13.2502
LeftForeArm  12.5846 -0.00022916 -4.15045
LeftHand  -0.046937 6.81408 0.564528
RightShoulder  -0.243196 -4.63487 13.9186
RightArm  -4.59455 -15.7002 19.6006
RightForeArm  6.68462 10.4831 -1.31228
RightHand  0.028961 6.26005 -0.0487541
LeftUpLeg  -3.09119 5.2439 -3.06628
LeftLeg  9.45163 -0.130589 -1.28436
LeftFoot  -1.82103 -0.435902 5.36382
LeftToes  1.32783e-010 1.73515e-011 1.59258e-011
314
root  -82.3269 40.7365 4.39895 -132.676 -84.8953 128.494
RightUpLeg  -2.0779 -1.70701 -8.89744
RightLeg  17.1743 -1.44902 -0.721218
RightFoot  -8.60469 -0.114738 2.17054
RightToes  -6.40286e-010 0 -3.6325e-017
Spine  -1.92873 2.29658 -2.94508
Spine1  7.67501 2.10673 0.761833
HEad  -19.2395 -1.84207 -5.60755
LeftShoulder1  -0.0485427 3.71518 -15.771
LeftArm  -10.9643 6.11822 -9.33
LeftForeArm  5.26356 -1.65319 -3.69148
LeftHand  -0.0360526 4.41118 4.65578
RightShoulder  -0.122423 -4.16952 10.7478
RightArm  -6.40547 -15.4435 14.6597
RightForeArm  2.0145 10.032 -2.13079
RightHand  0.00613679 6.39748 -0.281282
LeftUpLeg  -2.14884 5.10044 -2.87851
LeftLeg  8.56266 0.991151 -0.807286
LeftFoot  -1.89098 -0.415175 5.1536
LeftToes  1.32783e-010 1.73515e-011 1.59258e-011
315
root  -82.5682 40.7577 4.35671 -141.742 -84.1276 137.539
RightUpLeg  -1.40648 -3.26894 -9.02232
RightLeg  16.2853 0.324646 -0.186479
RightFoot  -8.74088 -0.118365 2.59043
RightToes  -6.40286e-010 0 -3.6325e-017
Spine  -2.11345 2.54706 -2.65945
Spine1  7.54819 2.30931 0.888693
HEad  -19.0053 -2.08401 -5.81893
LeftShoulder1  -0.00189722 3.51726 -13.5899
LeftArm  -15.0759 8.12203 -7.32708
LeftForeArm  2.6145 -4.71347 -1.24317
LeftHand  -0.0530345 7.57611 3.54988
RightShoulder  -0.0862117 -4.04193 7.85575
RightArm  -8.32706 -14.7759 10.8036
RightForeArm  -1.78234 9.84794 -2.83432
RightHand  0.0260337 6.08102 -0.0849385
LeftUpLeg  -1.53118 5.2102 -2.72132
LeftLeg  8.38276 1.95385 -0.610739
LeftFoot  -2.39921 -0.352316 4.69167
LeftToes  1.32783e-010 1.73515e-011 1.59258e-011
316
root  -82.7635 40.8354 4.29418 -147.981 -83.7492 144.139
RightUpLeg  -1.0277 -4.3599 -8.80293
RightLeg  15.0447 2.3323 0.218427
RightFoot  -7.96184 -0.135881 2.77417
RightToes  -6.40286e-010 0 -3.6325e-017
Spine  -3.16833 2.84231 -0.560527
Spine1  8.08779 3.01571 -0.903645
HEad  -17.9505 -3.26712 -5.50212
LeftShoulder1  -0.0349538 3.68401 -12.0396
LeftArm  -18.6301 6.55334 -4.30744
LeftForeArm  7.30768 -7.08196 0.0478855
LeftHand  -0.52986 16.2974 -4.98978
RightShoulder  -0.0374733 -3.76466 6.14871
RightArm  -12.772 -14.4309 8.06574
RightForeArm  -3.82085 9.67787 -4.28097
RightHand  0.0302819 4.8218 0.0556654
LeftUpLeg  -1.22202 5.2632 -2.32587
LeftLeg  7.7453 2.58326 -0.431552
LeftFoot  -2.30742 -0.326349 4.30415
LeftToes  1.32783e-010 1.73515e-011 1.59258e-011
317
root  -82.9486 40.9012 4.189 -152.094 -83.5101 147.85
RightUpLeg  0.309146 -5.10413 -8.58903
RightLeg  13.7453 3.77337 0.293604
RightFoot  -7.55871 -0.143146 2.78035
RightToes  -6.40286e-010 0 -3.6325e-017
Spine  -3.05497 2.89889 -0.356128
Spine1  8.18121 2.99594 -0.557726
HEad  -16.8009 -4.74111 -5.39064
LeftShoulder1  -0.0273403 3.65573 -10.8384
LeftArm  -29.4195 10.1122 -4.37283
LeftForeArm  21.0922 -14.5292 1.93207
LeftHand  -0.998863 14.5146 -11.3047
RightShoulder  -0.0328093 -3.741 4.80258
RightArm  -20.74 -13.6872 6.02171
RightForeArm  -0.936247 11.6533 -5.25331
RightHand  0.135878 5.03752 1.21108
LeftUpLeg  0.108414 5.33729 -1.97275
LeftLeg  6.71581 2.77793 -0.207625
LeftFoot  -2.18217 -0.307425 3.99888
LeftToes  1.32783e-010 1.73515e-011 1.59258e-011
